<?xml version="1.0" encoding="UTF-8"?>
<svg version="1.1" xmlns="http://www.w3.org/2000/svg" width="2000" height="1339">
<path d="M0 0 C660 0 1320 0 2000 0 C2000 441.87 2000 883.74 2000 1339 C1340 1339 680 1339 0 1339 C0 897.13 0 455.26 0 0 Z " fill="#FEE4EB" transform="translate(0,0)"/>
<path d="M0 0 C0.33 1.32 0.66 2.64 1 4 C1.33 3.01 1.66 2.02 2 1 C3.32 1.66 4.64 2.32 6 3 C6 2.01 6 1.02 6 0 C6.99 0 7.98 0 9 0 C8.67 1.65 8.34 3.3 8 5 C7.34 5 6.68 5 6 5 C6 6.32 6 7.64 6 9 C5.34 9 4.68 9 4 9 C4.33 9.99 4.66 10.98 5 12 C5.66 11.34 6.32 10.68 7 10 C7.33 10.66 7.66 11.32 8 12 C7.67 12.66 7.34 13.32 7 14 C8.32 13.01 9.64 12.02 11 11 C10.979375 12.0725 10.95875 13.145 10.9375 14.25 C10.85483564 17.78006421 10.85483564 17.78006421 11.5625 20.25 C12 22 12 22 11 25 C12.65 25 14.3 25 16 25 C17.06017644 29.55875868 16.74438695 31.7480568 15 36 C15.29519768 38.7336432 15.29519768 38.7336432 16 41 C17.485 40.505 17.485 40.505 19 40 C19.33 41.65 19.66 43.3 20 45 C21.32 45 22.64 45 24 45 C24.66 45 25.32 45 26 45 C26.495 44.01 26.495 44.01 27 43 C27 61.81 27 80.62 27 100 C26.01 100 25.02 100 24 100 C22.93453047 96.8035914 22.92572162 94.34252724 23 91 C22.34 91 21.68 91 21 91 C21.33 91.99 21.66 92.98 22 94 C21.34 94 20.68 94 20 94 C19.505 93.505 19.505 93.505 19 93 C18.67 94.32 18.34 95.64 18 97 C12.555 97.495 12.555 97.495 7 98 C6.505 97.01 6.505 97.01 6 96 C4.02 96.495 4.02 96.495 2 97 C2.33 97.66 2.66 98.32 3 99 C3.33 99.66 3.66 100.32 4 101 C3.01 101.99 3.01 101.99 2 103 C2 102.34 2 101.68 2 101 C1.34 101 0.68 101 0 101 C0.33 101.99 0.66 102.98 1 104 C-0.1446875 104.2165625 -0.1446875 104.2165625 -1.3125 104.4375 C-4.08172908 104.9632594 -4.08172908 104.9632594 -7 106 C-7 105.34 -7 104.68 -7 104 C-8.32 104 -9.64 104 -11 104 C-11.495 104.99 -11.495 104.99 -12 106 C-11.67 103.69 -11.34 101.38 -11 99 C-9.68 99.66 -8.36 100.32 -7 101 C-6.855625 99.741875 -6.71125 98.48375 -6.5625 97.1875 C-6.26251314 94.57332877 -5.84186703 92.52560108 -5 90 C-2.78298853 88.41034429 -0.42137527 87.27672514 2 86 C-0.09212994 85.92504683 -0.09212994 85.92504683 -2.4375 86.5625 C-5 87 -5 87 -8 86 C-7.67 82.7 -7.34 79.4 -7 76 C-7.99 76 -8.98 76 -10 76 C-10 75.01 -10 74.02 -10 73 C-7.08517222 72.19032562 -5.53886783 71.78154007 -2.6875 72.9375 C-2.130625 73.288125 -1.57375 73.63875 -1 74 C-1 74.99 -1 75.98 -1 77 C0.65 76.01 2.3 75.02 4 74 C4.495 74.495 4.495 74.495 5 75 C5.40992188 74.14535156 5.81984375 73.29070312 6.2421875 72.41015625 C6.78101563 71.30542969 7.31984375 70.20070313 7.875 69.0625 C8.40867187 67.96035156 8.94234375 66.85820312 9.4921875 65.72265625 C11 63 11 63 13 62 C13.68132451 60.33927151 14.34742127 58.672233 15 57 C15.66 56.34 16.32 55.68 17 55 C16.34 55 15.68 55 15 55 C14 49.25 14 49.25 14 47 C13.67 46.34 13.34 45.68 13 45 C13 44.01 13 43.02 13 42 C12.34 42.66 11.68 43.32 11 44 C8.4375 43.75 8.4375 43.75 6 43 C5.67 42.34 5.34 41.68 5 41 C4.01 41.495 4.01 41.495 3 42 C3 39.36 3 36.72 3 34 C2.731875 35.0725 2.46375 36.145 2.1875 37.25 C1.13772173 40.56508928 0.25387672 42.43877646 -2 45 C-2 44.34 -2 43.68 -2 43 C-2.99 43 -3.98 43 -5 43 C-4.67 41.35 -4.34 39.7 -4 38 C-3.34 38 -2.68 38 -2 38 C-2.144375 37.33613281 -2.28875 36.67226563 -2.4375 35.98828125 C-2.623125 35.10527344 -2.80875 34.22226562 -3 33.3125 C-3.185625 32.44238281 -3.37125 31.57226562 -3.5625 30.67578125 C-3.98972047 28.06287036 -4.07616201 25.64186962 -4 23 C-4.99 23.33 -5.98 23.66 -7 24 C-7.99 23.34 -8.98 22.68 -10 22 C-10.1875 18.875 -10.1875 18.875 -10 16 C-8.02 15.67 -6.04 15.34 -4 15 C-3.34 16.65 -2.68 18.3 -2 20 C-2 19.071875 -2 18.14375 -2 17.1875 C-2 15.125 -2 13.0625 -2 11 C-1.34 11 -0.68 11 0 11 C-1.39759905 7.45481116 -1.39759905 7.45481116 -3 4 C-2.67 3.01 -2.34 2.02 -2 1 C-1.34 0.67 -0.68 0.34 0 0 Z " fill="#FCD8E1" transform="translate(1973,368)"/>
<path d="M0 0 C0.66 0 1.32 0 2 0 C2 0.66 2 1.32 2 2 C2.66 2 3.32 2 4 2 C4.33 2.99 4.66 3.98 5 5 C6.32 5.66 7.64 6.32 9 7 C9 36.37 9 65.74 9 96 C8.01 96 7.02 96 6 96 C5.51990738 93.93771534 5.04096456 91.87516299 4.5625 89.8125 C4.29566406 88.66394531 4.02882813 87.51539063 3.75390625 86.33203125 C3.12687799 83.56076125 2.54100823 80.78908126 2 78 C1.34 78 0.68 78 0 78 C0 74.7 0 71.4 0 68 C0.66 69.32 1.32 70.64 2 72 C1.88505443 68.99931553 1.75832795 65.99987891 1.625 63 C1.5940625 62.16082031 1.563125 61.32164062 1.53125 60.45703125 C1.27950298 55.04447022 0.48441108 50.21354136 -1 45 C-1.33 47.64 -1.66 50.28 -2 53 C-2.33 53 -2.66 53 -3 53 C-3 48.38 -3 43.76 -3 39 C-1.02 38.505 -1.02 38.505 1 38 C0.01 37.34 -0.98 36.68 -2 36 C-3.34567377 29.99622471 -2.77520088 25.84772056 -1 20 C-1.66 20 -2.32 20 -3 20 C-3.33 16.37 -3.66 12.74 -4 9 C-3.01 9 -2.02 9 -1 9 C-0.67 6.03 -0.34 3.06 0 0 Z " fill="#FCD0DB" transform="translate(1991,71)"/>
<path d="M0 0 C1.953125 0.6484375 1.953125 0.6484375 4 2 C4.609375 4.6015625 4.609375 4.6015625 4.75 7.625 C4.80671875 8.62789062 4.8634375 9.63078125 4.921875 10.6640625 C4.94765625 11.43492187 4.9734375 12.20578125 5 13 C6.65 12.67 8.3 12.34 10 12 C9.154375 12.639375 8.30875 13.27875 7.4375 13.9375 C4.78755332 16.62949294 4.78755332 16.62949294 4.9609375 19.16015625 C5.19626851 20.72641483 5.45564007 22.2892402 5.73828125 23.84765625 C6.08108186 26.66680755 5.21965432 28.48446296 4 31 C4.33 31.66 4.66 32.32 5 33 C2.21788056 32.62403791 0.4120716 32.32681541 -1.8125 30.5625 C-3 29 -3 29 -3 27 C-3.66 27.33 -4.32 27.66 -5 28 C-5.46651207 30.12576782 -5.46651207 30.12576782 -5.625 32.5625 C-5.69976563 33.38878906 -5.77453125 34.21507812 -5.8515625 35.06640625 C-5.90054687 35.70449219 -5.94953125 36.34257813 -6 37 C-4.68 37.33 -3.36 37.66 -2 38 C-2.66 40.31 -3.32 42.62 -4 45 C-5.98 44.67 -7.96 44.34 -10 44 C-10 44.66 -10 45.32 -10 46 C-9.01 46.33 -8.02 46.66 -7 47 C-7.99 47.66 -8.98 48.32 -10 49 C-14.09779517 43.93512517 -14.63742418 40.04182194 -14.75 33.625 C-14.77964844 32.79355469 -14.80929687 31.96210937 -14.83984375 31.10546875 C-14.91000399 29.07082173 -14.95732895 27.03540909 -15 25 C-14.34 25 -13.68 25 -13 25 C-12.34 27.31 -11.68 29.62 -11 32 C-10.01 32 -9.02 32 -8 32 C-8 31.34 -8 30.68 -8 30 C-8.66 30 -9.32 30 -10 30 C-11.125 27.1875 -11.125 27.1875 -12 24 C-11.34 23.01 -10.68 22.02 -10 21 C-9.01 21 -8.02 21 -7 21 C-6.566875 20.525625 -6.13375 20.05125 -5.6875 19.5625 C-3.3293094 17.37899018 -1.12597439 17.34733049 2 17 C1.28436734 14.9837767 1.28436734 14.9837767 0 13 C-2.05000871 12.19471111 -2.05000871 12.19471111 -4 12 C-4.1875 9.625 -4.1875 9.625 -4 7 C-3.01 6.34 -2.02 5.68 -1 5 C-0.27034634 2.43717258 -0.27034634 2.43717258 0 0 Z M-5 31 C-4.67 31.66 -4.34 32.32 -4 33 C-0.97065509 33.65772428 -0.97065509 33.65772428 2 34 C1.67 35.98 1.34 37.96 1 40 C0.67 39.01 0.34 38.02 0 37 C-2.01508358 36.26676204 -2.01508358 36.26676204 -4 36 C-4.33 34.35 -4.66 32.7 -5 31 Z " fill="#FAD6DF" transform="translate(1956,595)"/>
<path d="M0 0 C1.485 0.99 1.485 0.99 3 2 C2.73958333 3.98567708 2.47916667 5.97135417 2.21875 7.95703125 C1.946767 10.15471706 1.946767 10.15471706 2 13 C2.66 13 3.32 13 4 13 C4.33 12.34 4.66 11.68 5 11 C5.28875 12.134375 5.5775 13.26875 5.875 14.4375 C6.24625 15.613125 6.6175 16.78875 7 18 C7.66 18.33 8.32 18.66 9 19 C9 34.51 9 50.02 9 66 C7.02 66.99 7.02 66.99 5 68 C3.76178076 59.41661615 2.77139005 50.90802554 2.2109375 42.25 C1.8069676 36.02587118 1.21984297 29.82714506 0.4921875 23.6328125 C0.40122803 22.84938477 0.31026855 22.06595703 0.21655273 21.25878906 C0.03593865 19.71590548 -0.14915226 18.17353662 -0.33959961 16.63183594 C-0.94728577 11.44609407 -1.38865824 6.22037025 -1 1 C-0.67 0.67 -0.34 0.34 0 0 Z " fill="#FBD4DD" transform="translate(1991,244)"/>
<path d="M0 0 C3 1 3 1 4 3 C4.99 3 5.98 3 7 3 C7.99 3.66 8.98 4.32 10 5 C10 5.66 10 6.32 10 7 C9.34 7 8.68 7 8 7 C7.67 7.99 7.34 8.98 7 10 C6.67 9.67 6.34 9.34 6 9 C6.74359673 14.55053286 6.74359673 14.55053286 8 20 C7.34 20 6.68 20 6 20 C6.33 21.98 6.66 23.96 7 26 C5.0625 26.5625 5.0625 26.5625 3 27 C2.67 26.67 2.34 26.34 2 26 C1.855625 26.5775 1.71125 27.155 1.5625 27.75 C0.78125 30.875 0.78125 30.875 0 34 C-2.875 33.75 -2.875 33.75 -6 33 C-7.3125 31.0625 -7.3125 31.0625 -8 29 C-8.33 28.34 -8.66 27.68 -9 27 C-8.34 26.67 -7.68 26.34 -7 26 C-6.27840576 24.35636866 -5.60648579 22.68949614 -5 21 C-5.66 21 -6.32 21 -7 21 C-6.52460544 16.721449 -3.97434671 14.90352893 -1 12 C0.05287814 10.36622358 1.0727001 8.70818403 2 7 C1.01 6.67 0.02 6.34 -1 6 C-0.835 5.38125 -0.67 4.7625 -0.5 4.125 C0.07634644 2.03936614 0.07634644 2.03936614 0 0 Z " fill="#FBD9E2" transform="translate(1935,381)"/>
<path d="M0 0 C0.66 0 1.32 0 2 0 C2 0.66 2 1.32 2 2 C3.65 1.34 5.3 0.68 7 0 C6.67 1.65 6.34 3.3 6 5 C7.32 4.34 8.64 3.68 10 3 C10.55472708 6.24911577 11.0267193 9.39410966 11.25 12.6875 C11.66707843 16.14111732 11.66707843 16.14111732 14.375 17.875 C17.03287217 19.05709377 17.03287217 19.05709377 20 20 C19.1875 22.9375 19.1875 22.9375 18 26 C17.01 26.33 16.02 26.66 15 27 C15.50603992 24.83125748 15.99983813 23.00032373 17 21 C14.69 21.33 12.38 21.66 10 22 C10.33 23.65 10.66 25.3 11 27 C10.01 27 9.02 27 8 27 C7.76925781 26.39414062 7.53851562 25.78828125 7.30078125 25.1640625 C4.8698873 18.9186828 2.08723611 12.9467253 -1 7 C-0.01 7 0.98 7 2 7 C-0.475 6.01 -0.475 6.01 -3 5 C-2.67 4.01 -2.34 3.02 -2 2 C-1.34 2 -0.68 2 0 2 C0 1.34 0 0.68 0 0 Z " fill="#FBD8E0" transform="translate(1931,888)"/>
<path d="M0 0 C0.93423645 3.01031744 1.04449911 3.86650268 0 7 C0.99 7 1.98 7 3 7 C3.33 9.97 3.66 12.94 4 16 C3.01 16 2.02 16 1 16 C1 16.66 1 17.32 1 18 C1.99 17.67 2.98 17.34 4 17 C4.66 17.33 5.32 17.66 6 18 C5.85780436 20.20857055 5.71108153 22.41684987 5.5625 24.625 C5.48128906 25.85476563 5.40007812 27.08453125 5.31640625 28.3515625 C5.03336056 31.61532388 4.58961047 34.77943859 4 38 C1.03 38.495 1.03 38.495 -2 39 C-3.5625 36.6875 -3.5625 36.6875 -5 34 C-4.67 33.01 -4.34 32.02 -4 31 C-3.34 31 -2.68 31 -2 31 C-2.01160156 30.25234375 -2.02320313 29.5046875 -2.03515625 28.734375 C-2.04869141 27.25710938 -2.04869141 27.25710938 -2.0625 25.75 C-2.07410156 24.77546875 -2.08570313 23.8009375 -2.09765625 22.796875 C-2 20 -2 20 -1.4375 17.8125 C-0.79028126 15.1311652 -1.85487501 13.42497057 -3 11 C-3.99 11.495 -3.99 11.495 -5 12 C-4.75 8.625 -4.75 8.625 -4 5 C-1.9375 3.5625 -1.9375 3.5625 0 3 C0 2.01 0 1.02 0 0 Z " fill="#FBD4DE" transform="translate(1969,777)"/>
<path d="M0 0 C0.66 0.33 1.32 0.66 2 1 C2 1.99 2 2.98 2 4 C4.97 4.495 4.97 4.495 8 5 C8.66 3.35 9.32 1.7 10 0 C11.5 1.3125 11.5 1.3125 13 3 C13 3.99 13 4.98 13 6 C12.030625 6.12375 11.06125 6.2475 10.0625 6.375 C8.5465625 6.684375 8.5465625 6.684375 7 7 C6.67 7.66 6.34 8.32 6 9 C5.34 9 4.68 9 4 9 C4.33 10.32 4.66 11.64 5 13 C4.01 13.66 3.02 14.32 2 15 C2.99 15.33 3.98 15.66 5 16 C4.67 16.99 4.34 17.98 4 19 C0.9375 20.1875 0.9375 20.1875 -2 21 C-2.66 19.35 -3.32 17.7 -4 16 C-4.66 16 -5.32 16 -6 16 C-6.33 14.68 -6.66 13.36 -7 12 C-6.34 11.67 -5.68 11.34 -5 11 C-5 10.01 -5 9.02 -5 8 C-4.34 7.67 -3.68 7.34 -3 7 C-3 5.02 -3 3.04 -3 1 C-2.01 0.67 -1.02 0.34 0 0 Z M-9 16 C-6 17 -6 17 -6 17 Z M-11 17 C-10.34 17 -9.68 17 -9 17 C-9.33 17.99 -9.66 18.98 -10 20 C-10.33 19.01 -10.66 18.02 -11 17 Z " fill="#FBD6DF" transform="translate(1979,1040)"/>
<path d="M0 0 C1.32 0.33 2.64 0.66 4 1 C2.80100302 4.0831351 1.52299523 7.06279492 0 10 C0.66 10.33 1.32 10.66 2 11 C1.67 11.99 1.34 12.98 1 14 C0.01 13.34 -0.98 12.68 -2 12 C-2.33 12.66 -2.66 13.32 -3 14 C-3.66 14 -4.32 14 -5 14 C-5.61875 14.969375 -6.2375 15.93875 -6.875 16.9375 C-9 20 -9 20 -11.25 20.875 C-11.8275 20.91625 -12.405 20.9575 -13 21 C-13.66 19.35 -14.32 17.7 -15 16 C-14.34 16 -13.68 16 -13 16 C-13.66 13.69 -14.32 11.38 -15 9 C-11.86650268 7.95550089 -11.01031744 8.06576355 -8 9 C-7.67 7.68 -7.34 6.36 -7 5 C-6.401875 4.9175 -5.80375 4.835 -5.1875 4.75 C-2.4033704 3.79544128 -1.56688858 2.42867729 0 0 Z " fill="#FCD5DF" transform="translate(1981,695)"/>
<path d="M0 0 C2 3 2 3 2 6 C2.99 6.33 3.98 6.66 5 7 C5.07347656 7.90492188 5.07347656 7.90492188 5.1484375 8.828125 C5.22320313 9.62734375 5.29796875 10.4265625 5.375 11.25 C5.44460938 12.03890625 5.51421875 12.8278125 5.5859375 13.640625 C5.88374809 16.03675519 5.88374809 16.03675519 7.1015625 18.109375 C8 20 8 20 7 23 C2.25 22.25 2.25 22.25 0 20 C0.33 19.01 0.66 18.02 1 17 C-0.65 17.66 -2.3 18.32 -4 19 C-3.67 17.02 -3.34 15.04 -3 13 C-2.34 13 -1.68 13 -1 13 C-1.11306697 11.04105639 -1.11306697 11.04105639 -2 9 C-4.49034386 7.70339566 -4.49034386 7.70339566 -7 7 C-6.67 6.01 -6.34 5.02 -6 4 C-4.66923011 3.65657551 -3.33568021 3.32380126 -2 3 C-1.34 2.01 -0.68 1.02 0 0 Z " fill="#FCD5DF" transform="translate(1952,922)"/>
<path d="M0 0 C0.66 0.33 1.32 0.66 2 1 C2 3.31 2 5.62 2 8 C-0.64738916 9.4606285 -1.89448334 10 -5 10 C-5.99 11.485 -5.99 11.485 -7 13 C-6.01 13 -5.02 13 -4 13 C-4.33 13.66 -4.66 14.32 -5 15 C-6.0725 15.12375 -7.145 15.2475 -8.25 15.375 C-12.48559486 16.08093248 -13.85861947 17.18081234 -17 20 C-18.96990608 21.38362451 -20.98224841 22.68611524 -23 24 C-21.92187246 17.77081866 -21.92187246 17.77081866 -19.37890625 15.64453125 C-14.78677798 13 -14.78677798 13 -12 13 C-12 12.01 -12 11.02 -12 10 C-9.04920467 7.77051019 -6.51420376 6.17140125 -3 5 C-2.67 4.01 -2.34 3.02 -2 2 C-1.67 2.33 -1.34 2.66 -1 3 C-0.67 2.01 -0.34 1.02 0 0 Z " fill="#FBD9E1" transform="translate(1897,856)"/>
<path d="M0 0 C2.3125 -0.1875 2.3125 -0.1875 5 0 C6.625 1.4375 6.625 1.4375 8 3 C8.99 3.33 9.98 3.66 11 4 C11 4.66 11 5.32 11 6 C11.598125 6.12375 12.19625 6.2475 12.8125 6.375 C15 7 15 7 18 9 C18 9.99 18 10.98 18 12 C17.01 12.33 16.02 12.66 15 13 C15 12.34 15 11.68 15 11 C14.4225 11.515625 13.845 12.03125 13.25 12.5625 C11 14 11 14 8.875 13.75 C7 13 7 13 5 12 C5 11.34 5 10.68 5 10 C3.68 10.33 2.36 10.66 1 11 C1.99 9.68 2.98 8.36 4 7 C2.68 6.67 1.36 6.34 0 6 C0 4.02 0 2.04 0 0 Z " fill="#FCD5DF" transform="translate(1940,1266)"/>
<path d="M0 0 C0.99 0 1.98 0 3 0 C3.33 0.66 3.66 1.32 4 2 C4.99 2.33 5.98 2.66 7 3 C6.67 3.66 6.34 4.32 6 5 C7.98 4.01 9.96 3.02 12 2 C10.76075855 6.95696581 9.21422242 9.11658466 5 12 C5.33 12.66 5.66 13.32 6 14 C5.67 14.66 5.34 15.32 5 16 C5.99 16.33 6.98 16.66 8 17 C7.67 18.98 7.34 20.96 7 23 C5.02 22.67 3.04 22.34 1 22 C1 19 1 19 1.5 16.625 C1.9970938 14.01525755 2.07568626 11.64901912 2 9 C1.34 8.67 0.68 8.34 0 8 C0.66 7.67 1.32 7.34 2 7 C1.484375 6.5875 0.96875 6.175 0.4375 5.75 C-0.036875 5.1725 -0.51125 4.595 -1 4 C-0.6875 1.8125 -0.6875 1.8125 0 0 Z " fill="#FAD2DC" transform="translate(1958,714)"/>
<path d="M0 0 C1.32 0 2.64 0 4 0 C4 4.62 4 9.24 4 14 C1.69 14.66 -0.62 15.32 -3 16 C-5.29632557 11.56043724 -6.20238143 8.94312365 -5 4 C-2.525 4.99 -2.525 4.99 0 6 C-0.2784375 4.7934375 -0.2784375 4.7934375 -0.5625 3.5625 C-0.706875 2.716875 -0.85125 1.87125 -1 1 C-0.67 0.67 -0.34 0.34 0 0 Z " fill="#FACED9" transform="translate(1996,1044)"/>
<path d="M0 0 C0.99 0.33 1.98 0.66 3 1 C3.66 0.67 4.32 0.34 5 0 C5 2.97 5 5.94 5 9 C5.33 8.67 5.66 8.34 6 8 C6.99 8 7.98 8 9 8 C9.66 8.66 10.32 9.32 11 10 C11.66 10 12.32 10 13 10 C11.9024777 12.99324263 11.32317108 13.84610901 8.375 15.25 C7.59125 15.4975 6.8075 15.745 6 16 C7.98 15.67 9.96 15.34 12 15 C12 18.10551666 11.4606285 19.35261084 10 22 C4.13009617 17.47178847 2.08403517 10.94382781 0 4 C0 2.68 0 1.36 0 0 Z " fill="#FBDBE4" transform="translate(1915,864)"/>
<path d="M0 0 C3.48670834 1.1094072 6.77484237 2.26337666 10 4 C9.34 4.66 8.68 5.32 8 6 C9.32 6.99 10.64 7.98 12 9 C11.34 9.66 10.68 10.32 10 11 C7.525 10.01 7.525 10.01 5 9 C4.67 9.66 4.34 10.32 4 11 C1.525 10.01 1.525 10.01 -1 9 C-1 8.34 -1 7.68 -1 7 C-1.99 7.33 -2.98 7.66 -4 8 C-4 7.34 -4 6.68 -4 6 C-4.66 6 -5.32 6 -6 6 C-5.67 5.01 -5.34 4.02 -5 3 C-3.67696283 2.6278958 -2.34262065 2.29369827 -1 2 C-0.67 1.34 -0.34 0.68 0 0 Z " fill="#FBD6E0" transform="translate(1986,974)"/>
<path d="M0 0 C0.99 0.33 1.98 0.66 3 1 C3.99 0.67 4.98 0.34 6 0 C7.36176066 6.65749656 7.36176066 6.65749656 6 10 C5.01 10.495 5.01 10.495 4 11 C2.86649466 13.01669827 2.86649466 13.01669827 2 15 C-0.15377564 12.37801226 -1.40072174 10.35595828 -2 7 C-1.34 7 -0.68 7 0 7 C0 6.34 0 5.68 0 5 C-0.99 5 -1.98 5 -3 5 C-3.33 5.99 -3.66 6.98 -4 8 C-4.33 7.34 -4.66 6.68 -5 6 C-2.59016393 1.29508197 -2.59016393 1.29508197 0 0 Z " fill="#FBD5DF" transform="translate(1944,1183)"/>
<path d="M0 0 C0.33 0 0.66 0 1 0 C1 6.6 1 13.2 1 20 C0.01 19.67 -0.98 19.34 -2 19 C-1.67 17.68 -1.34 16.36 -1 15 C-2.32 15 -3.64 15 -5 15 C-5 12.36 -5 9.72 -5 7 C-4.34 7 -3.68 7 -3 7 C-3.33 6.01 -3.66 5.02 -4 4 C-2.68 3.34 -1.36 2.68 0 2 C0 1.34 0 0.68 0 0 Z " fill="#FCD5DF" transform="translate(1999,411)"/>
<path d="M0 0 C1.65 0.33 3.3 0.66 5 1 C4.67 1.99 4.34 2.98 4 4 C3.01 4 2.02 4 1 4 C1.66 5.98 2.32 7.96 3 10 C0.44008376 12.01136276 -2.04590299 13.62845496 -5 15 C-5 12.69 -5 10.38 -5 8 C-5.99 8 -6.98 8 -8 8 C-8 7.34 -8 6.68 -8 6 C-7.05125 5.566875 -6.1025 5.13375 -5.125 4.6875 C-1.79958063 3.20697799 -1.79958063 3.20697799 0 0 Z " fill="#FED7E1" transform="translate(1985,296)"/>
<path d="M0 0 C0.99 0.66 1.98 1.32 3 2 C3 2.66 3 3.32 3 4 C3.66 2.68 4.32 1.36 5 0 C5.99 0.33 6.98 0.66 8 1 C7.67 1.33 7.34 1.66 7 2 C7.66 2.33 8.32 2.66 9 3 C8.67 3.99 8.34 4.98 8 6 C4.24092359 7.62323754 1.07913787 8.23994929 -3 8 C-3.33 7.34 -3.66 6.68 -4 6 C-4.99 5.67 -5.98 5.34 -7 5 C-7 5.66 -7 6.32 -7 7 C-7.66 7 -8.32 7 -9 7 C-8.67 5.35 -8.34 3.7 -8 2 C-7.67 2.66 -7.34 3.32 -7 4 C-6.34 4 -5.68 4 -5 4 C-4.67 3.34 -4.34 2.68 -4 2 C-3.34 2 -2.68 2 -2 2 C-1.34 1.34 -0.68 0.68 0 0 Z " fill="#FCD7E0" transform="translate(1977,560)"/>
<path d="M0 0 C2.84613268 2.84613268 2.79864424 5.04000344 3 9 C1.65437601 11.94755732 0.91445456 13.54277272 -2 15 C-2.66 14.67 -3.32 14.34 -4 14 C-3.7215625 13.01 -3.7215625 13.01 -3.4375 12 C-2.86972692 8.10669886 -3.40718293 4.88624521 -4 1 C-2.125 0.375 -2.125 0.375 0 0 Z " fill="#FBD7E0" transform="translate(1971,311)"/>
<path d="M0 0 C4.24052864 0.3028949 6.27189964 2.98473118 9 6 C9.99 7.485 9.99 7.485 11 9 C11.99 9.33 12.98 9.66 14 10 C13.67 11.65 13.34 13.3 13 15 C11.35 15.33 9.7 15.66 8 16 C8 15.01 8 14.02 8 13 C8.66 12.67 9.32 12.34 10 12 C9.195625 11.7525 8.39125 11.505 7.5625 11.25 C5 10 5 10 4.1875 7.875 C4.125625 7.25625 4.06375 6.6375 4 6 C3.34 6 2.68 6 2 6 C0.375 3.5 0.375 3.5 -1 1 C-0.67 0.67 -0.34 0.34 0 0 Z " fill="#FDD8E2" transform="translate(1983,1300)"/>
<path d="M0 0 C1.98 0 3.96 0 6 0 C6 0.66 6 1.32 6 2 C6.598125 1.835 7.19625 1.67 7.8125 1.5 C10 1 10 1 13 1 C12.7525 1.70125 12.505 2.4025 12.25 3.125 C11.90040748 7.14531402 13.60817813 8.88338362 16 12 C15.01 12.495 15.01 12.495 14 13 C14 12.34 14 11.68 14 11 C13.01 11 12.02 11 11 11 C10.67 11.66 10.34 12.32 10 13 C10 12.34 10 11.68 10 11 C9.34 11 8.68 11 8 11 C7.79375 9.906875 7.5875 8.81375 7.375 7.6875 C6.34336062 3.7714341 6.34336062 3.7714341 2.875 2.0625 C1.92625 1.711875 0.9775 1.36125 0 1 C0 0.67 0 0.34 0 0 Z " fill="#FADCE3" transform="translate(1845,741)"/>
<path d="M0 0 C0.66 0.33 1.32 0.66 2 1 C1.34 2.65 0.68 4.3 0 6 C0.99 5.67 1.98 5.34 3 5 C3 5.66 3 6.32 3 7 C2.01 7 1.02 7 0 7 C0.66 8.65 1.32 10.3 2 12 C-3.875 17 -3.875 17 -5 17 C-4.9278125 16.38511719 -4.855625 15.77023437 -4.78125 15.13671875 C-4.64203125 13.92435547 -4.64203125 13.92435547 -4.5 12.6875 C-4.4071875 11.88699219 -4.314375 11.08648438 -4.21875 10.26171875 C-3.95186537 7.88103445 -3.95186537 7.88103445 -4 5 C-3.34 4.67 -2.68 4.34 -2 4 C-0.86649466 1.98330173 -0.86649466 1.98330173 0 0 Z " fill="#FDD7E0" transform="translate(1956,702)"/>
<path d="M0 0 C0 0.66 0 1.32 0 2 C0.66 2 1.32 2 2 2 C2 3.32 2 4.64 2 6 C-0.3125 7.125 -0.3125 7.125 -3 8 C-3.99 7.34 -4.98 6.68 -6 6 C-6.99 6 -7.98 6 -9 6 C-9 5.01 -9 4.02 -9 3 C-5.66696609 0.50022457 -4.26696398 0 0 0 Z " fill="#FCD5DF" transform="translate(1958,1305)"/>
<path d="M0 0 C0.33 0.66 0.66 1.32 1 2 C1.99 2 2.98 2 4 2 C4.33 3.32 4.66 4.64 5 6 C6.65 6.33 8.3 6.66 10 7 C10 7.99 10 8.98 10 10 C7 12 7 12 3.8125 11.625 C2.4203125 11.315625 2.4203125 11.315625 1 11 C1.33 9.68 1.66 8.36 2 7 C1.01 7 0.02 7 -1 7 C-0.67 4.69 -0.34 2.38 0 0 Z " fill="#FAD1DB" transform="translate(1900,1131)"/>
<path d="M0 0 C0.99 0.33 1.98 0.66 3 1 C5.43959392 6.90638527 5.20544452 12.68828771 5 19 C4.01 18.67 3.02 18.34 2 18 C1.93941406 17.28714844 1.87882812 16.57429688 1.81640625 15.83984375 C1.35191899 10.53039712 0.81924749 5.266591 0 0 Z " fill="#FAD3DE" transform="translate(1955,0)"/>
<path d="M0 0 C0.66 0 1.32 0 2 0 C0.80100302 3.0831351 -0.47700477 6.06279492 -2 9 C-1.34 9.33 -0.68 9.66 0 10 C-0.33 10.99 -0.66 11.98 -1 13 C-1.99 12.34 -2.98 11.68 -4 11 C-4.33 11.66 -4.66 12.32 -5 13 C-5.99 13 -6.98 13 -8 13 C-8.33 11.68 -8.66 10.36 -9 9 C-8.34 9 -7.68 9 -7 9 C-6.67 8.34 -6.34 7.68 -6 7 C-5.34 7 -4.68 7 -4 7 C-4 6.01 -4 5.02 -4 4 C-3.34 4 -2.68 4 -2 4 C-1.34 2.68 -0.68 1.36 0 0 Z " fill="#F7C8D3" transform="translate(1983,696)"/>
<path d="M0 0 C2.10633718 1.70828921 2.93801608 2.52148416 3.29296875 5.26171875 C3.25816406 6.06222656 3.22335937 6.86273437 3.1875 7.6875 C3.16042969 8.49574219 3.13335938 9.30398438 3.10546875 10.13671875 C3.07066406 10.75160156 3.03585937 11.36648438 3 12 C2.2575 11.46375 1.515 10.9275 0.75 10.375 C-0.1575 9.92125 -1.065 9.4675 -2 9 C-4.30287793 9.69140351 -4.30287793 9.69140351 -6 11 C-6.33 9.68 -6.66 8.36 -7 7 C-5.02 6.34 -3.04 5.68 -1 5 C-0.67 3.35 -0.34 1.7 0 0 Z " fill="#FCD4DE" transform="translate(1997,644)"/>
<path d="M0 0 C3.42266827 1.14088942 3.98367437 2.15881389 6 5 C6.33 5 6.66 5 7 5 C7 6.98 7 8.96 7 11 C6.34 11 5.68 11 5 11 C4.67 11.66 4.34 12.32 4 13 C3.34 12.34 2.68 11.68 2 11 C1.34 10.67 0.68 10.34 0 10 C0 6.7 0 3.4 0 0 Z " fill="#FAD2DC" transform="translate(1976,279)"/>
<path d="M0 0 C1.65 0 3.3 0 5 0 C6.60080151 4.00200378 5.29279692 7.04556236 4 11 C1.83125748 10.49396008 0.00032373 10.00016187 -2 9 C-2 8.01 -2 7.02 -2 6 C-0.68 5.67 0.64 5.34 2 5 C1.34 3.35 0.68 1.7 0 0 Z " fill="#FAD4DD" transform="translate(1947,376)"/>
<path d="M0 0 C1.65 0 3.3 0 5 0 C5.66 1.32 6.32 2.64 7 4 C6.67 4.33 6.34 4.66 6 5 C5.92820036 6.51928038 5.91607993 8.04167482 5.9375 9.5625 C5.94652344 10.38878906 5.95554687 11.21507812 5.96484375 12.06640625 C5.97644531 12.70449219 5.98804688 13.34257813 6 14 C5.34 14 4.68 14 4 14 C3.67 14.99 3.34 15.98 3 17 C3 12.71 3 8.42 3 4 C1.35 4 -0.3 4 -2 4 C-1.34 2.68 -0.68 1.36 0 0 Z " fill="#FBD4DD" transform="translate(1945,1140)"/>
<path d="M0 0 C0.33 0.99 0.66 1.98 1 3 C1.99 3 2.98 3 4 3 C4 3.99 4 4.98 4 6 C4.66 6 5.32 6 6 6 C6.33 5.34 6.66 4.68 7 4 C7.66 5.32 8.32 6.64 9 8 C8.01 7.67 7.02 7.34 6 7 C5.67 7.66 5.34 8.32 5 9 C5 8.34 5 7.68 5 7 C4.34 7.66 3.68 8.32 3 9 C2.01 9.495 2.01 9.495 1 10 C1 9.34 1 8.68 1 8 C-1.475 9.485 -1.475 9.485 -4 11 C-3.71125 10.29875 -3.4225 9.5975 -3.125 8.875 C-1.97866412 5.94547497 -0.97374346 2.99078347 0 0 Z " fill="#FBD9E1" transform="translate(1963,960)"/>
<path d="M0 0 C0.33 0 0.66 0 1 0 C1 3.63 1 7.26 1 11 C0.01 11.33 -0.98 11.66 -2 12 C-2.99 11.01 -3.98 10.02 -5 9 C-4.34 8.67 -3.68 8.34 -3 8 C-3 7.34 -3 6.68 -3 6 C-3.66 6 -4.32 6 -5 6 C-5.33 4.68 -5.66 3.36 -6 2 C-5.01 2 -4.02 2 -3 2 C-3 2.66 -3 3.32 -3 4 C-2.01 4 -1.02 4 0 4 C0 2.68 0 1.36 0 0 Z " fill="#FACED9" transform="translate(1999,761)"/>
<path d="M0 0 C0.66 0.33 1.32 0.66 2 1 C1.030625 1.721875 0.06125 2.44375 -0.9375 3.1875 C-3.29913506 5.13237593 -3.93412331 5.7882535 -4.875 8.8125 C-4.91625 9.534375 -4.9575 10.25625 -5 11 C-5.99 10.67 -6.98 10.34 -8 10 C-8 9.34 -8 8.68 -8 8 C-8.99 7.67 -9.98 7.34 -11 7 C-10.67 5.68 -10.34 4.36 -10 3 C-9.278125 3.061875 -8.55625 3.12375 -7.8125 3.1875 C-4.47140053 2.96476004 -2.80314721 1.74249692 0 0 Z " fill="#FCD8E1" transform="translate(1956,740)"/>
<path d="M0 0 C2.31 0.33 4.62 0.66 7 1 C7.33 2.65 7.66 4.3 8 6 C6.02 6.66 4.04 7.32 2 8 C2 7.01 2 6.02 2 5 C0.35 5 -1.3 5 -3 5 C-3.33 4.01 -3.66 3.02 -4 2 C-1.03 2.495 -1.03 2.495 2 3 C2 2.34 2 1.68 2 1 C1.34 0.67 0.68 0.34 0 0 Z " fill="#FED8E2" transform="translate(1976,903)"/>
<path d="M0 0 C0.66 0.33 1.32 0.66 2 1 C2 2.32 2 3.64 2 5 C2.7763932 8.0745356 2.7763932 8.0745356 5 10 C4.01 10.33 3.02 10.66 2 11 C2 12.32 2 13.64 2 15 C2.66 15 3.32 15 4 15 C3 17 3 17 1 18 C-0.29283945 12.26302493 -1.37619454 6.89371452 -1 1 C-0.67 0.67 -0.34 0.34 0 0 Z " fill="#FACFDA" transform="translate(1963,39)"/>
<path d="M0 0 C0.33 0.66 0.66 1.32 1 2 C1.928125 1.79375 2.85625 1.5875 3.8125 1.375 C7 1 7 1 10 3 C10 3.66 10 4.32 10 5 C8.02 5.66 6.04 6.32 4 7 C3.34 6.34 2.68 5.68 2 5 C1.67 5.66 1.34 6.32 1 7 C-1 6 -1 6 -1.75 4.0625 C-1.8325 3.381875 -1.915 2.70125 -2 2 C-1.34 1.34 -0.68 0.68 0 0 Z " fill="#FAD2DC" transform="translate(1975,826)"/>
<path d="M0 0 C0.33 0.66 0.66 1.32 1 2 C1.78375 1.95875 2.5675 1.9175 3.375 1.875 C6 2 6 2 8 4 C7.625 6.125 7.625 6.125 7 8 C5 7 5 7 4 4 C3.34 6.31 2.68 8.62 2 11 C-1 7.25 -1 7.25 -1 5 C-1.66 5 -2.32 5 -3 5 C-1.125 1.125 -1.125 1.125 0 0 Z " fill="#FCCEDA" transform="translate(1992,709)"/>
<path d="M0 0 C0.33 0.66 0.66 1.32 1 2 C2.98 2 4.96 2 7 2 C6.67 2.66 6.34 3.32 6 4 C5.34 4 4.68 4 4 4 C4 4.99 4 5.98 4 7 C3.34 7 2.68 7 2 7 C2 6.01 2 5.02 2 4 C1.34 4 0.68 4 0 4 C0 2.68 0 1.36 0 0 Z M-3 5 C-0.525 5.99 -0.525 5.99 2 7 C-2.75 10.875 -2.75 10.875 -5 12 C-4.125 6.125 -4.125 6.125 -3 5 Z " fill="#FADAE1" transform="translate(1911,820)"/>
<path d="M0 0 C3.12290635 0.48578543 5.99580359 0.9986012 9 2 C9 1.34 9 0.68 9 0 C11.475 0.99 11.475 0.99 14 2 C13.67 3.32 13.34 4.64 13 6 C10 6 10 6 8 5 C6.00039988 4.960008 3.99952758 4.95653201 2 5 C1.34 3.35 0.68 1.7 0 0 Z " fill="#FBD7E1" transform="translate(1931,806)"/>
<path d="M0 0 C3.48208553 0.5616267 6.41275689 1.28225842 8.6875 4.0625 C9.120625 4.701875 9.55375 5.34125 10 6 C3.25 7.125 3.25 7.125 1 6 C1 5.01 1 4.02 1 3 C0.01 2.67 -0.98 2.34 -2 2 C-1.34 1.34 -0.68 0.68 0 0 Z " fill="#FDD6E0" transform="translate(1960,1281)"/>
<path d="M0 0 C2.31 0 4.62 0 7 0 C6.02640613 3.27481575 5.30933359 4.76205109 2.5625 6.875 C0 8 0 8 -3 7 C-2.34 6.01 -1.68 5.02 -1 4 C-0.34 4 0.32 4 1 4 C0.67 2.68 0.34 1.36 0 0 Z " fill="#F9CED9" transform="translate(343,1302)"/>
<path d="M0 0 C1.65 0 3.3 0 5 0 C5.33 0.66 5.66 1.32 6 2 C5.67 2.66 5.34 3.32 5 4 C5.66 4.33 6.32 4.66 7 5 C6.49396008 7.16874252 6.00016187 8.99967627 5 11 C5.66 11.33 6.32 11.66 7 12 C5.68 12 4.36 12 3 12 C3 10.02 3 8.04 3 6 C2.01 5.67 1.02 5.34 0 5 C0 3.35 0 1.7 0 0 Z " fill="#F9D1DA" transform="translate(1969,673)"/>
<path d="M0 0 C0.79560764 2.91499943 1.25322499 5.74561419 1.5625 8.75 C1.64628906 9.54921875 1.73007813 10.3484375 1.81640625 11.171875 C1.87699219 11.77515625 1.93757813 12.3784375 2 13 C0.68 12.34 -0.64 11.68 -2 11 C-2.66 11.66 -3.32 12.32 -4 13 C-4.33 12.01 -4.66 11.02 -5 10 C-4.34 9.01 -3.68 8.02 -3 7 C-3 6.01 -3 5.02 -3 4 C-2.34 3.67 -1.68 3.34 -1 3 C-0.67 2.01 -0.34 1.02 0 0 Z " fill="#FAD7E0" transform="translate(1942,228)"/>
<path d="M0 0 C0.66 0 1.32 0 2 0 C2.33 1.65 2.66 3.3 3 5 C3.66 5 4.32 5 5 5 C6.06775224 6.96466413 7.06553465 8.96855359 8 11 C7.67 11.66 7.34 12.32 7 13 C1.91558124 9.35248219 0.20555041 7.14830711 -1 1 C-0.67 0.67 -0.34 0.34 0 0 Z " fill="#F7D8E0" transform="translate(1832,963)"/>
<path d="M0 0 C1.0402027 4.01221042 2 7.83932062 2 12 C1.34 12 0.68 12 0 12 C0 11.01 0 10.02 0 9 C-2.475 8.01 -2.475 8.01 -5 7 C-5.33 7.66 -5.66 8.32 -6 9 C-6 7.68 -6 6.36 -6 5 C-5.01 5 -4.02 5 -3 5 C-3 4.34 -3 3.68 -3 3 C-2.34 3 -1.68 3 -1 3 C-0.67 2.01 -0.34 1.02 0 0 Z " fill="#F9D5DD" transform="translate(1952,821)"/>
<path d="M0 0 C0.99 0 1.98 0 3 0 C3 0.66 3 1.32 3 2 C3.66 2 4.32 2 5 2 C5 2.99 5 3.98 5 5 C4.01 5.33 3.02 5.66 2 6 C1.67 6.66 1.34 7.32 1 8 C0.01 7.67 -0.98 7.34 -2 7 C-2.33 5.02 -2.66 3.04 -3 1 C-2.01 1.33 -1.02 1.66 0 2 C0 1.34 0 0.68 0 0 Z " fill="#FBD7E0" transform="translate(1942,648)"/>
<path d="M0 0 C0.33 0 0.66 0 1 0 C1.16435547 0.95712891 1.16435547 0.95712891 1.33203125 1.93359375 C1.49058594 2.75988281 1.64914063 3.58617187 1.8125 4.4375 C1.96332031 5.26121094 2.11414063 6.08492187 2.26953125 6.93359375 C2.51058594 7.61550781 2.75164062 8.29742188 3 9 C3.99 9.33 4.98 9.66 6 10 C4.6875 11.5 4.6875 11.5 3 13 C1.66666667 13 0.33333333 13 -1 13 C-1.02686553 11.02090602 -1.04633375 9.04171029 -1.0625 7.0625 C-1.07410156 5.96035156 -1.08570312 4.85820313 -1.09765625 3.72265625 C-1 1 -1 1 0 0 Z M0 6 C0.33 7.32 0.66 8.64 1 10 C1.33 8.68 1.66 7.36 2 6 C1.34 6 0.68 6 0 6 Z " fill="#FAD2DC" transform="translate(1,1184)"/>
<path d="M0 0 C0.33 0.66 0.66 1.32 1 2 C1.99 2 2.98 2 4 2 C3 4 3 4 1 7 C0.67 7.66 0.34 8.32 0 9 C-0.99 8.67 -1.98 8.34 -3 8 C-3.33 6.35 -3.66 4.7 -4 3 C-3.01 2.67 -2.02 2.34 -1 2 C-0.67 1.34 -0.34 0.68 0 0 Z " fill="#FBDAE2" transform="translate(1945,1046)"/>
<path d="M0 0 C0.66 0.33 1.32 0.66 2 1 C2 1.99 2 2.98 2 4 C2.66 4.33 3.32 4.66 4 5 C2.515 7.475 2.515 7.475 1 10 C-0.32 9.34 -1.64 8.68 -3 8 C-2.34 8 -1.68 8 -1 8 C-1 7.34 -1 6.68 -1 6 C-1.66 5.67 -2.32 5.34 -3 5 C-2.34 5 -1.68 5 -1 5 C-1 4.34 -1 3.68 -1 3 C-1.66 2.67 -2.32 2.34 -3 2 C-2.01 2 -1.02 2 0 2 C0 1.34 0 0.68 0 0 Z " fill="#FCD4DD" transform="translate(1959,1007)"/>
<path d="M0 0 C2.00720923 0.28674418 4.0085944 0.61866701 6 1 C6.12375 1.639375 6.2475 2.27875 6.375 2.9375 C6.684375 3.9584375 6.684375 3.9584375 7 5 C7.66 5.33 8.32 5.66 9 6 C6 7 6 7 3.3125 5.6875 C2.549375 5.130625 1.78625 4.57375 1 4 C1 3.34 1 2.68 1 2 C0.34 1.67 -0.32 1.34 -1 1 C-0.67 0.67 -0.34 0.34 0 0 Z " fill="#FBD7E0" transform="translate(1931,331)"/>
<path d="M0 0 C0.99 0.33 1.98 0.66 3 1 C2.67 1.721875 2.34 2.44375 2 3.1875 C0.99396471 6.01697427 0.83022598 8.02895466 1 11 C-0.65 9.35 -2.3 7.7 -4 6 C-2.68 4.02 -1.36 2.04 0 0 Z " fill="#FDD6DF" transform="translate(1983,153)"/>
<path d="M0 0 C0.33 0 0.66 0 1 0 C1.33 2.97 1.66 5.94 2 9 C2.66 9 3.32 9 4 9 C3.34 10.65 2.68 12.3 2 14 C1.34 14 0.68 14 0 14 C-2.27571116 5.96498906 -2.27571116 5.96498906 -1.125 1.9375 C-0.75375 1.298125 -0.3825 0.65875 0 0 Z " fill="#FED8E3" transform="translate(1963,54)"/>
<path d="M0 0 C0.66 0.33 1.32 0.66 2 1 C1.67 2.98 1.34 4.96 1 7 C-2 7 -2 7 -5 5 C-4 2 -4 2 -2.0625 0.75 C-1.381875 0.5025 -0.70125 0.255 0 0 Z " fill="#F9D8E0" transform="translate(1936,495)"/>
<path d="M0 0 C0.99 0.33 1.98 0.66 3 1 C3.185625 2.2065625 3.185625 2.2065625 3.375 3.4375 C3.58125 4.283125 3.7875 5.12875 4 6 C4.66 6.33 5.32 6.66 6 7 C5.34 7 4.68 7 4 7 C3.67 9.64 3.34 12.28 3 15 C2.34 15 1.68 15 1 15 C1.01160156 14.16855469 1.02320313 13.33710938 1.03515625 12.48046875 C1.04417969 11.39378906 1.05320312 10.30710938 1.0625 9.1875 C1.07410156 8.10855469 1.08570313 7.02960938 1.09765625 5.91796875 C1.13624766 2.93487831 1.13624766 2.93487831 0 0 Z " fill="#FCD6E0" transform="translate(1985,225)"/>
<path d="M0 0 C2.64 0 5.28 0 8 0 C7.67 1.98 7.34 3.96 7 6 C6.01 6 5.02 6 4 6 C4 4.68 4 3.36 4 2 C2.68 2.33 1.36 2.66 0 3 C0 2.01 0 1.02 0 0 Z " fill="#F9D0DA" transform="translate(376,1330)"/>
<path d="M0 0 C2 2 2 2 2.0625 4.375 C2.041875 5.24125 2.02125 6.1075 2 7 C2.2784375 7.928125 2.2784375 7.928125 2.5625 8.875 C3.211857 12.0290197 2.54383279 14.85785502 2 18 C-0.45391569 14.31912647 -0.22802759 11.55644412 -0.125 7.3125 C-0.11597656 6.61060547 -0.10695313 5.90871094 -0.09765625 5.18554688 C-0.07413704 3.45688475 -0.03826713 1.72839855 0 0 Z M2 0 C4 1 4 1 4 1 Z " fill="#F8D9E1" transform="translate(1926,368)"/>
<path d="M0 0 C0.33 0.66 0.66 1.32 1 2 C2.32 1.67 3.64 1.34 5 1 C4.67 3.64 4.34 6.28 4 9 C2.68 9 1.36 9 0 9 C0 6.03 0 3.06 0 0 Z " fill="#FCD7E0" transform="translate(1944,246)"/>
<path d="M0 0 C1.17571451 3.67410785 1.07366746 7.16929183 1 11 C-0.65 10.67 -2.3 10.34 -4 10 C-3.7215625 8.824375 -3.7215625 8.824375 -3.4375 7.625 C-2.74037734 5.02910225 -2.74037734 5.02910225 -4 3 C-2.68 3 -1.36 3 0 3 C0 2.01 0 1.02 0 0 Z " fill="#FBD3DD" transform="translate(1986,924)"/>
<path d="M0 0 C0.99 0 1.98 0 3 0 C3.33 1.98 3.66 3.96 4 6 C2.02 6.33 0.04 6.66 -2 7 C-2.125 4.625 -2.125 4.625 -2 2 C-1.34 1.34 -0.68 0.68 0 0 Z " fill="#FBD9E2" transform="translate(1954,600)"/>
<path d="M0 0 C0.33 0 0.66 0 1 0 C1.3125 2.3125 1.3125 2.3125 1 5 C-1.5 6.8125 -1.5 6.8125 -4 8 C-4 6.68 -4 5.36 -4 4 C-4.99 4.33 -5.98 4.66 -7 5 C-6.34 3.68 -5.68 2.36 -5 1 C-3.68 1.66 -2.36 2.32 -1 3 C-0.67 2.01 -0.34 1.02 0 0 Z " fill="#F8D0D9" transform="translate(1981,441)"/>
<path d="M0 0 C0.99 0 1.98 0 3 0 C2.67 1.65 2.34 3.3 2 5 C1.34 5 0.68 5 0 5 C0 6.32 0 7.64 0 9 C-0.66 9 -1.32 9 -2 9 C-2.66 6.36 -3.32 3.72 -4 1 C-2.02 1.99 -2.02 1.99 0 3 C0 2.01 0 1.02 0 0 Z " fill="#F8D2DA" transform="translate(1979,368)"/>
<path d="M0 0 C0.66 0 1.32 0 2 0 C1.67 3.96 1.34 7.92 1 12 C1.66 12 2.32 12 3 12 C2.67 12.99 2.34 13.98 2 15 C1.34 15 0.68 15 0 15 C-0.93742541 12.18772378 -1.13470844 10.41253156 -1.125 7.5 C-1.12757812 6.7265625 -1.13015625 5.953125 -1.1328125 5.15625 C-1 3 -1 3 0 0 Z " fill="#F8CCD8" transform="translate(1983,82)"/>
<path d="M0 0 C3.40100748 4.53467664 3.33913116 5.7912782 3.1875 11.25 C3.16042969 12.51328125 3.13335938 13.7765625 3.10546875 15.078125 C3.07066406 16.04234375 3.03585937 17.0065625 3 18 C2.34 18 1.68 18 1 18 C0.67 12.06 0.34 6.12 0 0 Z " fill="#F7CFD8" transform="translate(1682,1321)"/>
<path d="M0 0 C2.3125 2.0625 2.3125 2.0625 2.6328125 4.046875 C2.6256918 6.0549113 2.47654402 8.06116294 2.3125 10.0625 C0.3125 7.0625 0.3125 7.0625 0.3125 3.0625 C-1.3375 3.3925 -2.9875 3.7225 -4.6875 4.0625 C-5.0175 2.7425 -5.3475 1.4225 -5.6875 0.0625 C-2.6875 -0.9375 -2.6875 -0.9375 0 0 Z " fill="#F9D3DD" transform="translate(1997.6875,1191.9375)"/>
<path d="M0 0 C0.66 0.33 1.32 0.66 2 1 C2 4.3 2 7.6 2 11 C1.34 11 0.68 11 0 11 C0 11.99 0 12.98 0 14 C-0.66 14 -1.32 14 -2 14 C-2 11.36 -2 8.72 -2 6 C-1.34 6 -0.68 6 0 6 C0 4.02 0 2.04 0 0 Z " fill="#FCD6E0" transform="translate(1989,945)"/>
<path d="M0 0 C1.98 0 3.96 0 6 0 C6 2 6 4 6 6 C5.01 6.33 4.02 6.66 3 7 C0 2.25 0 2.25 0 0 Z " fill="#F9D3DB" transform="translate(626,43)"/>
<path d="M0 0 C0.66 0.33 1.32 0.66 2 1 C2.85056945 4.55692677 3.16909807 6.49270578 2 10 C1.34 9.67 0.68 9.34 0 9 C-0.33 9.99 -0.66 10.98 -1 12 C-1.08159574 7.83861737 -0.98248524 4.0527516 0 0 Z " fill="#F9D1DB" transform="translate(1791,1284)"/>
<path d="M0 0 C0.66 0.33 1.32 0.66 2 1 C1.01 2.485 1.01 2.485 0 4 C0.66 4.33 1.32 4.66 2 5 C1.01 5 0.02 5 -1 5 C-1.33 6.65 -1.66 8.3 -2 10 C-4 7 -4 7 -3.8125 4.4375 C-3 2 -3 2 0 0 Z " fill="#FBD4DD" transform="translate(1952,1155)"/>
<path d="M0 0 C0.33 0.66 0.66 1.32 1 2 C2.65614657 2.38218767 4.32457024 2.71395102 6 3 C6.66 3.33 7.32 3.66 8 4 C7.67 4.99 7.34 5.98 7 7 C6.01 6.67 5.02 6.34 4 6 C4 5.34 4 4.68 4 4 C3.34 4 2.68 4 2 4 C2.33 4.99 2.66 5.98 3 7 C1.68 7 0.36 7 -1 7 C-0.67 4.69 -0.34 2.38 0 0 Z " fill="#F6D4DC" transform="translate(1945,498)"/>
<path d="M0 0 C0.433125 0.9590625 0.433125 0.9590625 0.875 1.9375 C1.82823451 4.15206079 1.82823451 4.15206079 4 5 C4 6.32 4 7.64 4 9 C2.35 9.33 0.7 9.66 -1 10 C-0.67 8.68 -0.34 7.36 0 6 C-0.99 5.67 -1.98 5.34 -3 5 C-2.01 4.67 -1.02 4.34 0 4 C0 2.68 0 1.36 0 0 Z " fill="#F6D3DB" transform="translate(1867,172)"/>
<path d="M0 0 C2.5 2.25 2.5 2.25 5 5 C5 6.32 5 7.64 5 9 C3.35 8.67 1.7 8.34 0 8 C-0.38063221 5.6739143 -0.71269945 3.33944736 -1 1 C-0.67 0.67 -0.34 0.34 0 0 Z " fill="#F7D4DC" transform="translate(1868,1081)"/>
<path d="M0 0 C1.66666667 0 3.33333333 0 5 0 C5.33 0.66 5.66 1.32 6 2 C6.99 2.33 7.98 2.66 9 3 C8.67 3.99 8.34 4.98 8 6 C5.9375 6.6875 5.9375 6.6875 4 7 C4.33 5.68 4.66 4.36 5 3 C3.35 3 1.7 3 0 3 C0 2.01 0 1.02 0 0 Z " fill="#F8D6DE" transform="translate(1914,720)"/>
<path d="M0 0 C0.99 0.33 1.98 0.66 3 1 C3 2.65 3 4.3 3 6 C1.02 6.99 1.02 6.99 -1 8 C-1 6.68 -1 5.36 -1 4 C-1.66 4 -2.32 4 -3 4 C-3 3.34 -3 2.68 -3 2 C-2.01 2 -1.02 2 0 2 C0 1.34 0 0.68 0 0 Z " fill="#F9DCE3" transform="translate(397,720)"/>
<path d="M0 0 C0.625 1.8125 0.625 1.8125 1 4 C0.01 5.485 0.01 5.485 -1 7 C-0.01 8.65 0.98 10.3 2 12 C1.34 12 0.68 12 0 12 C0 11.34 0 10.68 0 10 C-1.32 9.67 -2.64 9.34 -4 9 C-3.38461538 3.46153846 -3.38461538 3.46153846 -1.4375 1.125 C-0.963125 0.75375 -0.48875 0.3825 0 0 Z " fill="#FCD6E0" transform="translate(1995,542)"/>
<path d="M0 0 C1.32 0.66 2.64 1.32 4 2 C4.33 1.34 4.66 0.68 5 0 C5.66 0.33 6.32 0.66 7 1 C7 2.65 7 4.3 7 6 C6.01 6.495 6.01 6.495 5 7 C5 6.34 5 5.68 5 5 C3.35 4.67 1.7 4.34 0 4 C-0.33 3.01 -0.66 2.02 -1 1 C-0.67 0.67 -0.34 0.34 0 0 Z " fill="#F9D2DB" transform="translate(1993,941)"/>
<path d="M0 0 C1 3 1 3 -0.14453125 5.4453125 C-0.69496094 6.32960938 -1.24539063 7.21390625 -1.8125 8.125 C-2.35519531 9.01445313 -2.89789062 9.90390625 -3.45703125 10.8203125 C-5 13 -5 13 -7 14 C-5.53967505 8.68972746 -3.01679014 4.53669968 0 0 Z " fill="#F5D5DD" transform="translate(1871,898)"/>
<path d="M0 0 C4.875 4.625 4.875 4.625 6 8 C2.31197956 6.77065985 1.27643027 5.06140622 -1 2 C-0.67 1.34 -0.34 0.68 0 0 Z M8 0 C8.33 0.66 8.66 1.32 9 2 C9.66 2.33 10.32 2.66 11 3 C9.68 2.67 8.36 2.34 7 2 C7.33 1.34 7.66 0.68 8 0 Z M6 3 C6.66 3.66 7.32 4.32 8 5 C7.01 5.495 7.01 5.495 6 6 C6 5.01 6 4.02 6 3 Z " fill="#F8D6DE" transform="translate(1904,614)"/>
<path d="M0 0 C0.66 1.32 1.32 2.64 2 4 C1.01 5.485 1.01 5.485 0 7 C-0.33 7.99 -0.66 8.98 -1 10 C-1.33 9.34 -1.66 8.68 -2 8 C-2.66 8 -3.32 8 -4 8 C-2.25 2.25 -2.25 2.25 0 0 Z " fill="#FAD5DE" transform="translate(1956,368)"/>
<path d="M0 0 C0.66 0.66 1.32 1.32 2 2 C1.01 2.495 1.01 2.495 0 3 C-0.99 2.67 -1.98 2.34 -3 2 C-2.67 3.65 -2.34 5.3 -2 7 C-2.33 6.34 -2.66 5.68 -3 5 C-3.66 5 -4.32 5 -5 5 C-5.33 7.64 -5.66 10.28 -6 13 C-8 9.25 -8 9.25 -8 7 C-7.34 7 -6.68 7 -6 7 C-6 6.01 -6 5.02 -6 4 C-5.34 4 -4.68 4 -4 4 C-4 3.01 -4 2.02 -4 1 C-2.125 0.375 -2.125 0.375 0 0 Z " fill="#FAD7E0" transform="translate(1949,263)"/>
<path d="M0 0 C2.16874252 0.50603992 3.99967627 0.99983813 6 2 C6 3.32 6 4.64 6 6 C5.34 6 4.68 6 4 6 C4 5.34 4 4.68 4 4 C2.35 4.33 0.7 4.66 -1 5 C-0.67 3.35 -0.34 1.7 0 0 Z " fill="#F8D1DA" transform="translate(668,37)"/>
<path d="M0 0 C0.2475 0.5775 0.495 1.155 0.75 1.75 C2.16683317 4.3002997 3.87627537 6.01785701 6 8 C4.68 8 3.36 8 2 8 C2 7.34 2 6.68 2 6 C0.68 5.34 -0.64 4.68 -2 4 C-2 3.34 -2 2.68 -2 2 C-1.34 2 -0.68 2 0 2 C0 1.34 0 0.68 0 0 Z " fill="#FCD6E0" transform="translate(1926,1251)"/>
<path d="M0 0 C1.9375 1.0625 1.9375 1.0625 4 3 C4.75 6.6875 4.75 6.6875 5 10 C4.01 10.66 3.02 11.32 2 12 C1.855625 10.948125 1.71125 9.89625 1.5625 8.8125 C1.12473034 5.84539451 0.62195134 2.93205634 0 0 Z " fill="#F8D1DB" transform="translate(1976,845)"/>
<path d="M0 0 C0.66 1.32 1.32 2.64 2 4 C-1 6 -1 6 -3.6875 5.625 C-4.450625 5.41875 -5.21375 5.2125 -6 5 C-6 4.01 -6 3.02 -6 2 C-4.35 2.33 -2.7 2.66 -1 3 C-0.67 2.01 -0.34 1.02 0 0 Z " fill="#FCD5DE" transform="translate(1964,740)"/>
<path d="M0 0 C0 1.98 0 3.96 0 6 C-1.32 6.33 -2.64 6.66 -4 7 C-4.33 5.02 -4.66 3.04 -5 1 C-2 0 -2 0 0 0 Z " fill="#F8D6DE" transform="translate(175,368)"/>
<path d="M0 0 C0.99 0.33 1.98 0.66 3 1 C3.33 1.99 3.66 2.98 4 4 C4.99 4 5.98 4 7 4 C7 4.66 7 5.32 7 6 C6.34 6 5.68 6 5 6 C5 6.66 5 7.32 5 8 C3.68 8.33 2.36 8.66 1 9 C0.67 6.03 0.34 3.06 0 0 Z " fill="#FACFDA" transform="translate(1896,1267)"/>
<path d="M0 0 C0.66 0.33 1.32 0.66 2 1 C2.4140625 3.06640625 2.4140625 3.06640625 2.625 5.5625 C2.69976562 6.38878906 2.77453125 7.21507812 2.8515625 8.06640625 C2.92503906 9.02353516 2.92503906 9.02353516 3 10 C1.68 9.34 0.36 8.68 -1 8 C-1.04241723 5.66705225 -1.04092937 3.33297433 -1 1 C-0.67 0.67 -0.34 0.34 0 0 Z " fill="#F7D1DA" transform="translate(355,1266)"/>
<path d="M0 0 C1.2065625 0.0309375 1.2065625 0.0309375 2.4375 0.0625 C2.7675 1.3825 3.0975 2.7025 3.4375 4.0625 C0.38486336 5.04370464 -1.50986336 5.04370464 -4.5625 4.0625 C-3.23463115 0.07889344 -3.23463115 0.07889344 0 0 Z " fill="#FCD9E2" transform="translate(1949.5625,924.9375)"/>
<path d="M0 0 C2 1 2 1 2 1 Z M-4 1 C-1.9375 1.4375 -1.9375 1.4375 0 2 C-1.87949705 5.57104439 -3.17053157 7.54744301 -7 9 C-5.125 2.125 -5.125 2.125 -4 1 Z " fill="#F5D4DC" transform="translate(1881,871)"/>
<path d="M0 0 C0.66 0 1.32 0 2 0 C2.66 0.66 3.32 1.32 4 2 C4.99 2.33 5.98 2.66 7 3 C7 3.66 7 4.32 7 5 C4.6875 5.6875 4.6875 5.6875 2 6 C0.1875 4.5625 0.1875 4.5625 -1 3 C-0.67 2.01 -0.34 1.02 0 0 Z " fill="#FBDAE3" transform="translate(1962,897)"/>
<path d="M0 0 C0.33 0.66 0.66 1.32 1 2 C1.99 1.67 2.98 1.34 4 1 C7.07692308 5.43076923 7.07692308 5.43076923 6.6875 8.3125 C6.460625 8.869375 6.23375 9.42625 6 10 C5.566875 9.195625 5.13375 8.39125 4.6875 7.5625 C3.19525998 4.72153646 3.19525998 4.72153646 0 4 C0 2.68 0 1.36 0 0 Z " fill="#FCD7E0" transform="translate(1974,867)"/>
<path d="M0 0 C4.23830976 2.82553984 3.97715348 5.12180888 5 10 C3.68 9.67 2.36 9.34 1 9 C0.06576355 5.98968256 -0.04449911 5.13349732 1 2 C0.34 1.67 -0.32 1.34 -1 1 C-0.67 0.67 -0.34 0.34 0 0 Z " fill="#FBD4DD" transform="translate(1965,673)"/>
<path d="M0 0 C0.99 0 1.98 0 3 0 C3.59732819 2.76264289 4 5.16032769 4 8 C2.0625 7.3125 2.0625 7.3125 0 6 C-0.8125 3.4375 -0.8125 3.4375 -1 1 C-0.67 0.67 -0.34 0.34 0 0 Z " fill="#FACFDA" transform="translate(9,617)"/>
<path d="M0 0 C0.66 0 1.32 0 2 0 C2 3.3 2 6.6 2 10 C1.01 10.33 0.02 10.66 -1 11 C-0.814375 10.278125 -0.62875 9.55625 -0.4375 8.8125 C0.02043853 5.86860943 -0.36092449 3.87583978 -1 1 C-0.67 0.67 -0.34 0.34 0 0 Z " fill="#FCD6DF" transform="translate(1998,563)"/>
<path d="M0 0 C0.99 0.33 1.98 0.66 3 1 C3 2.65 3 4.3 3 6 C2.34 6 1.68 6 1 6 C0.67 6.99 0.34 7.98 0 9 C-0.87890625 2.84765625 -0.87890625 2.84765625 -1 1 C-0.67 0.67 -0.34 0.34 0 0 Z " fill="#FAD5DF" transform="translate(1970,328)"/>
<path d="M0 0 C1.32 0.99 2.64 1.98 4 3 C3.67 4.65 3.34 6.3 3 8 C1.68 8 0.36 8 -1 8 C-0.67 5.36 -0.34 2.72 0 0 Z " fill="#F9D6DE" transform="translate(1948,322)"/>
<path d="M0 0 C0.88336837 2.4667645 1.1312406 3.63859372 0.22265625 6.140625 C-0.16019531 6.83671875 -0.54304687 7.5328125 -0.9375 8.25 C-1.31777344 8.95640625 -1.69804688 9.6628125 -2.08984375 10.390625 C-2.39019531 10.92171875 -2.69054687 11.4528125 -3 12 C-4.12668965 8.61993106 -3.89636912 8.0359269 -2.625 4.875 C-2.34914063 4.17117188 -2.07328125 3.46734375 -1.7890625 2.7421875 C-1 1 -1 1 0 0 Z " fill="#F9D6DE" transform="translate(815,1327)"/>
<path d="M0 0 C0.99 0.33 1.98 0.66 3 1 C2.67 2.65 2.34 4.3 2 6 C1.67 5.34 1.34 4.68 1 4 C-0.65 4.33 -2.3 4.66 -4 5 C-4.33 4.01 -4.66 3.02 -5 2 C-3.68 2 -2.36 2 -1 2 C-0.67 1.34 -0.34 0.68 0 0 Z " fill="#FACFDA" transform="translate(1980,1101)"/>
<path d="M0 0 C0.99 0 1.98 0 3 0 C3 0.99 3 1.98 3 3 C2.01 3.495 2.01 3.495 1 4 C1.66 4.66 2.32 5.32 3 6 C1.35 6.66 -0.3 7.32 -2 8 C-1.125 2.25 -1.125 2.25 0 0 Z " fill="#F7D7DF" transform="translate(1848,937)"/>
<path d="M0 0 C2.475 0.495 2.475 0.495 5 1 C4.67 2.65 4.34 4.3 4 6 C3.01 6 2.02 6 1 6 C0.67 4.02 0.34 2.04 0 0 Z " fill="#F4D1DA" transform="translate(1877,410)"/>
<path d="M0 0 C0.33 0.66 0.66 1.32 1 2 C1.99 1.67 2.98 1.34 4 1 C4.33 2.32 4.66 3.64 5 5 C3.35 6.32 1.7 7.64 0 9 C0 6.03 0 3.06 0 0 Z " fill="#F9DBE2" transform="translate(1924,349)"/>
<path d="M0 0 C0.99 0.66 1.98 1.32 3 2 C2.34 2 1.68 2 1 2 C1.33 3.65 1.66 5.3 2 7 C1.01 7.33 0.02 7.66 -1 8 C-1.66 6.02 -2.32 4.04 -3 2 C-2.01 1.34 -1.02 0.68 0 0 Z " fill="#FED9E3" transform="translate(1989,334)"/>
<path d="M0 0 C0.33 0.66 0.66 1.32 1 2 C1.66 2 2.32 2 3 2 C3 2.99 3 3.98 3 5 C2.34 5 1.68 5 1 5 C1.33 6.32 1.66 7.64 2 9 C-1 7 -1 7 -1.8125 4.5 C-1.874375 3.675 -1.93625 2.85 -2 2 C-1.34 1.34 -0.68 0.68 0 0 Z " fill="#FDD8E1" transform="translate(1990,311)"/>
<path d="M0 0 C0.66 0.33 1.32 0.66 2 1 C1.75 2.875 1.75 2.875 1 5 C-1.0625 6.25 -1.0625 6.25 -3 7 C-3.66 6.01 -4.32 5.02 -5 4 C-4.34 4 -3.68 4 -3 4 C-3 3.34 -3 2.68 -3 2 C-2.01 1.34 -1.02 0.68 0 0 Z " fill="#FCDCE4" transform="translate(1912,80)"/>
<path d="M0 0 C2.64 0.33 5.28 0.66 8 1 C8 1.66 8 2.32 8 3 C5.03 3 2.06 3 -1 3 C-0.67 2.01 -0.34 1.02 0 0 Z " fill="#FBD3DD" transform="translate(488,1336)"/>
<path d="M0 0 C1.32 0 2.64 0 4 0 C4 1.65 4 3.3 4 5 C2.35 5 0.7 5 -1 5 C-0.67 3.35 -0.34 1.7 0 0 Z " fill="#F7CFD9" transform="translate(418,1285)"/>
<path d="M0 0 C0.99 0.33 1.98 0.66 3 1 C2.67 2.98 2.34 4.96 2 7 C1.01 7 0.02 7 -1 7 C-1.04254356 5.00045254 -1.04080783 2.99958364 -1 1 C-0.67 0.67 -0.34 0.34 0 0 Z " fill="#F6D4DC" transform="translate(274,1279)"/>
<path d="M0 0 C0.99 0.99 1.98 1.98 3 3 C2.34 4.32 1.68 5.64 1 7 C1.66 7.33 2.32 7.66 3 8 C2.01 8.33 1.02 8.66 0 9 C-0.33 7.68 -0.66 6.36 -1 5 C-1.66 5 -2.32 5 -3 5 C-2.67 4.34 -2.34 3.68 -2 3 C-1.34 3.33 -0.68 3.66 0 4 C0 2.68 0 1.36 0 0 Z " fill="#F8D5DD" transform="translate(1916,627)"/>
<path d="M0 0 C0.99 0.33 1.98 0.66 3 1 C3 2.32 3 3.64 3 5 C1.68 5.33 0.36 5.66 -1 6 C-1.33 4.35 -1.66 2.7 -2 1 C-1.34 0.67 -0.68 0.34 0 0 Z " fill="#F7D6DE" transform="translate(1939,402)"/>
<path d="M0 0 C0.99 0 1.98 0 3 0 C3.66 1.65 4.32 3.3 5 5 C3.35 5.33 1.7 5.66 0 6 C0 4.02 0 2.04 0 0 Z " fill="#F6C7D3" transform="translate(1983,301)"/>
<path d="M0 0 C1.32 0.33 2.64 0.66 4 1 C3.67 3.31 3.34 5.62 3 8 C1.5 6.8125 1.5 6.8125 0 5 C-0.1875 2.3125 -0.1875 2.3125 0 0 Z " fill="#FAD5DE" transform="translate(1980,275)"/>
<path d="M0 0 C1.65 1.65 3.3 3.3 5 5 C4.34 6.32 3.68 7.64 3 9 C2.34 9 1.68 9 1 9 C0.67 6.03 0.34 3.06 0 0 Z " fill="#F9D1DA" transform="translate(1956,248)"/>
<path d="M0 0 C0.99 0.99 1.98 1.98 3 3 C2.34 4.32 1.68 5.64 1 7 C-0.32 6.34 -1.64 5.68 -3 5 C-3 4.34 -3 3.68 -3 3 C-2.34 3 -1.68 3 -1 3 C-0.67 2.01 -0.34 1.02 0 0 Z " fill="#FACFDA" transform="translate(1978,10)"/>
<path d="M0 0 C2.04119788 1.61594832 4.04072937 3.2856382 6 5 C6 5.66 6 6.32 6 7 C6.66 7.33 7.32 7.66 8 8 C6.68 8 5.36 8 4 8 C4 7.34 4 6.68 4 6 C3.01 5.67 2.02 5.34 1 5 C0.67 3.35 0.34 1.7 0 0 Z " fill="#F3D2D9" transform="translate(1894,1181)"/>
<path d="M0 0 C0.99 1.32 1.98 2.64 3 4 C2.67 4.66 2.34 5.32 2 6 C1.01 6 0.02 6 -1 6 C-1.99 6.495 -1.99 6.495 -3 7 C-2.25 2.25 -2.25 2.25 0 0 Z " fill="#FDDAE3" transform="translate(1949,1169)"/>
<path d="M0 0 C4.455 0.99 4.455 0.99 9 2 C9 2.66 9 3.32 9 4 C6.36 3.67 3.72 3.34 1 3 C0.67 2.01 0.34 1.02 0 0 Z " fill="#F6D0D9" transform="translate(1859,1100)"/>
<path d="M0 0 C2.475 0.495 2.475 0.495 5 1 C5.33 1.99 5.66 2.98 6 4 C6.66 4.33 7.32 4.66 8 5 C7.01 5.33 6.02 5.66 5 6 C2.3125 4.1875 2.3125 4.1875 0 2 C0 1.34 0 0.68 0 0 Z " fill="#FBD4DF" transform="translate(1987,830)"/>
<path d="M0 0 C2 2 2 2 2 5 C2.66 5 3.32 5 4 5 C4 5.66 4 6.32 4 7 C4.66 7.33 5.32 7.66 6 8 C4.33388095 8.042721 2.66617115 8.04063832 1 8 C0 7 0 7 -0.0625 3.4375 C-0.041875 2.303125 -0.02125 1.16875 0 0 Z " fill="#FBD2DC" transform="translate(1975,800)"/>
<path d="M0 0 C0.66 0 1.32 0 2 0 C1.67 1.65 1.34 3.3 1 5 C1.66 5 2.32 5 3 5 C2.67 5.99 2.34 6.98 2 8 C1.01 8.33 0.02 8.66 -1 9 C-0.67 6.03 -0.34 3.06 0 0 Z " fill="#F7CED8" transform="translate(1952,710)"/>
<path d="M0 0 C0.33 0.66 0.66 1.32 1 2 C1.66 2.33 2.32 2.66 3 3 C2.67 3.99 2.34 4.98 2 6 C1.01 5.34 0.02 4.68 -1 4 C-1.33 4.66 -1.66 5.32 -2 6 C-2.66 5.34 -3.32 4.68 -4 4 C-2.68 2.68 -1.36 1.36 0 0 Z " fill="#FCCEDA" transform="translate(1980,703)"/>
<path d="M0 0 C1.485 0.99 1.485 0.99 3 2 C3 2.66 3 3.32 3 4 C4.32 4.33 5.64 4.66 7 5 C6.01 6.485 6.01 6.485 5 8 C4.34 7.34 3.68 6.68 3 6 C2.01 5.67 1.02 5.34 0 5 C0 3.35 0 1.7 0 0 Z " fill="#FCD5E0" transform="translate(11,530)"/>
<path d="M0 0 C1.03348696 3.10046087 1.17755913 4.05610218 0 7 C-0.99 7.33 -1.98 7.66 -3 8 C-3.66 8.66 -4.32 9.32 -5 10 C-4.38545304 6.00544473 -2.29353263 3.25533664 0 0 Z " fill="#F6DBE2" transform="translate(1810,496)"/>
<path d="M0 0 C0 1.98 0 3.96 0 6 C-0.66 5.34 -1.32 4.68 -2 4 C-2.33 4.66 -2.66 5.32 -3 6 C-3.99 6 -4.98 6 -6 6 C-5.1875 3.5625 -5.1875 3.5625 -4 1 C-1 0 -1 0 0 0 Z " fill="#FADAE3" transform="translate(1943,435)"/>
<path d="M0 0 C0.66 0 1.32 0 2 0 C2 0.66 2 1.32 2 2 C2.66 2 3.32 2 4 2 C2.89131683 4.21736634 1.50559539 6.03617993 0 8 C-1 7 -1 7 -1.125 4 C-1 1 -1 1 0 0 Z " fill="#F9D5DC" transform="translate(1973,351)"/>
<path d="M0 0 C0.33 0.66 0.66 1.32 1 2 C1.66 2 2.32 2 3 2 C2 5 2 5 1 6 C0.67 6.66 0.34 7.32 0 8 C-0.99 8 -1.98 8 -3 8 C-1.125 1.125 -1.125 1.125 0 0 Z " fill="#F6D4DC" transform="translate(1899,175)"/>
<path d="M0 0 C0.99 0.33 1.98 0.66 3 1 C3 1.99 3 2.98 3 4 C1.02 4.33 -0.96 4.66 -3 5 C-3 4.01 -3 3.02 -3 2 C-2.01 2 -1.02 2 0 2 C0 1.34 0 0.68 0 0 Z " fill="#F9D0DA" transform="translate(620,27)"/>
<path d="M0 0 C1.98 0.495 1.98 0.495 4 1 C3.01 1.495 3.01 1.495 2 2 C2.33 3.65 2.66 5.3 3 7 C2.34 7 1.68 7 1 7 C-1 4 -1 4 -0.625 1.8125 C-0.41875 1.214375 -0.2125 0.61625 0 0 Z " fill="#F7D3DB" transform="translate(866,20)"/>
<path d="M0 0 C-0.33 0.99 -0.66 1.98 -1 3 C-2.98 3 -4.96 3 -7 3 C-6.67 2.01 -6.34 1.02 -6 0 C-3.42525708 -0.99667468 -2.51072708 -1.25536354 0 0 Z " fill="#FDDBE3" transform="translate(397,1336)"/>
<path d="M0 0 C1.65 1.32 3.3 2.64 5 4 C4.01 4.495 4.01 4.495 3 5 C2.01 6.485 2.01 6.485 1 8 C0.34 7.34 -0.32 6.68 -1 6 C-0.625 2.875 -0.625 2.875 0 0 Z " fill="#FCDAE2" transform="translate(1858,1100)"/>
<path d="M0 0 C0.33 0.66 0.66 1.32 1 2 C1.66 2 2.32 2 3 2 C3.33 2.99 3.66 3.98 4 5 C2.35 5.33 0.7 5.66 -1 6 C-1.625 4.125 -1.625 4.125 -2 2 C-1.34 1.34 -0.68 0.68 0 0 Z " fill="#F3D4DB" transform="translate(1214,1040)"/>
<path d="M0 0 C0.66 0 1.32 0 2 0 C2 0.66 2 1.32 2 2 C2.99 2.33 3.98 2.66 5 3 C1.25 6 1.25 6 -1 6 C-1.042721 4.33388095 -1.04063832 2.66617115 -1 1 C-0.67 0.67 -0.34 0.34 0 0 Z " fill="#F7D7DF" transform="translate(1873,942)"/>
<path d="M0 0 C2.625 0.9375 2.625 0.9375 5 2 C4.67 2.99 4.34 3.98 4 5 C1.69 4.67 -0.62 4.34 -3 4 C-2.67 3.01 -2.34 2.02 -2 1 C-1.34 0.67 -0.68 0.34 0 0 Z " fill="#FDD8E1" transform="translate(1980,518)"/>
<path d="M0 0 C0.99 0 1.98 0 3 0 C1.125 5.75 1.125 5.75 0 8 C-0.99 7.67 -1.98 7.34 -3 7 C-2.67 6.01 -2.34 5.02 -2 4 C-1.34 4 -0.68 4 0 4 C0 2.68 0 1.36 0 0 Z " fill="#F6D2DA" transform="translate(1895,152)"/>
<path d="M0 0 C1.32 0.33 2.64 0.66 4 1 C4.33 2.65 4.66 4.3 5 6 C3.0625 5.25 3.0625 5.25 1 4 C0.25 1.875 0.25 1.875 0 0 Z " fill="#F5CBD6" transform="translate(192,94)"/>
<path d="M0 0 C0.66 0 1.32 0 2 0 C1.75 2.875 1.75 2.875 1 6 C-1.0625 7.375 -1.0625 7.375 -3 8 C-2.37240135 5.07120629 -1.41377341 2.63904371 0 0 Z " fill="#F9D7DF" transform="translate(611,85)"/>
<path d="M0 0 C0.66 0.33 1.32 0.66 2 1 C2 3.97 2 6.94 2 10 C1.67 9.34 1.34 8.68 1 8 C0.34 8 -0.32 8 -1 8 C-0.67 5.36 -0.34 2.72 0 0 Z " fill="#F9D2DC" transform="translate(1966,79)"/>
<path d="M0 0 C0.99 0.33 1.98 0.66 3 1 C3 1.66 3 2.32 3 3 C2.34 3 1.68 3 1 3 C0.67 4.32 0.34 5.64 0 7 C-0.66 7 -1.32 7 -2 7 C-1.125 2.25 -1.125 2.25 0 0 Z " fill="#FBD7E0" transform="translate(1957,1224)"/>
<path d="M0 0 C0.66 0.99 1.32 1.98 2 3 C1.34 4.32 0.68 5.64 0 7 C-0.99 6.67 -1.98 6.34 -3 6 C-2.42655063 3.13275314 -2.1385485 2.1385485 0 0 Z " fill="#FAD6DF" transform="translate(1950,1093)"/>
<path d="M0 0 C1.32 0.99 2.64 1.98 4 3 C3.67 4.65 3.34 6.3 3 8 C2.67 7.01 2.34 6.02 2 5 C1.34 4.67 0.68 4.34 0 4 C0 2.68 0 1.36 0 0 Z " fill="#FBDAE2" transform="translate(1945,1064)"/>
<path d="M0 0 C0.66 0.66 1.32 1.32 2 2 C1.34 3.65 0.68 5.3 0 7 C-1.65 5.35 -3.3 3.7 -5 2 C-4.360625 1.855625 -3.72125 1.71125 -3.0625 1.5625 C-1.02454854 1.18992819 -1.02454854 1.18992819 0 0 Z " fill="#F8D7DE" transform="translate(1926,879)"/>
<path d="M0 0 C0.66 1.32 1.32 2.64 2 4 C2.99 3.67 3.98 3.34 5 3 C5 3.66 5 4.32 5 5 C3.66666667 6.33333333 2.33333333 7.66666667 1 9 C0.67 6.03 0.34 3.06 0 0 Z " fill="#FAD3DC" transform="translate(1984,850)"/>
<path d="M0 0 C3.465 1.485 3.465 1.485 7 3 C6.01 4.485 6.01 4.485 5 6 C0.25 4.125 0.25 4.125 -2 3 C-1.34 2.01 -0.68 1.02 0 0 Z " fill="#F8D5DD" transform="translate(1921,744)"/>
<path d="M0 0 C0.66 0 1.32 0 2 0 C2 0.66 2 1.32 2 2 C2.99 2 3.98 2 5 2 C5 3.98 5 5.96 5 8 C4.01 7.67 3.02 7.34 2 7 C2.33 5.68 2.66 4.36 3 3 C2.01 2.67 1.02 2.34 0 2 C0 1.34 0 0.68 0 0 Z " fill="#F7CCD7" transform="translate(1995,423)"/>
<path d="M0 0 C0.99 0.33 1.98 0.66 3 1 C1.75 3 1.75 3 0 5 C-1.32 5 -2.64 5 -4 5 C-3 2 -3 2 0 0 Z " fill="#F7D3DB" transform="translate(31,931)"/>
<path d="M0 0 C0.66 0 1.32 0 2 0 C1.25 4.75 1.25 4.75 -1 7 C-1.66 5.02 -2.32 3.04 -3 1 C-2.01 1.33 -1.02 1.66 0 2 C0 1.34 0 0.68 0 0 Z " fill="#F7D6DE" transform="translate(1883,755)"/>
<path d="M0 0 C0.99 0 1.98 0 3 0 C3 2.31 3 4.62 3 7 C2.01 6.34 1.02 5.68 0 5 C-0.1875 2.375 -0.1875 2.375 0 0 Z " fill="#FEDAE3" transform="translate(1997,450)"/>
<path d="M0 0 C0.66 0 1.32 0 2 0 C2 2.31 2 4.62 2 7 C0.68 6.67 -0.64 6.34 -2 6 C-1.34 4.02 -0.68 2.04 0 0 Z " fill="#F7D1DA" transform="translate(734,98)"/>
<path d="M0 0 C0.66 0.33 1.32 0.66 2 1 C2.75 4.375 2.75 4.375 3 8 C2.01 9.485 2.01 9.485 1 11 C0.63743142 9.5437328 0.28520207 8.08488815 -0.0625 6.625 C-0.35833984 5.40683594 -0.35833984 5.40683594 -0.66015625 4.1640625 C-1 2 -1 2 0 0 Z " fill="#FDDAE4" transform="translate(1936,24)"/>
<path d="M0 0 C1.42944945 2.35438733 2.08661261 3.48032433 1.625 6.25 C1.41875 6.8275 1.2125 7.405 1 8 C0.34 8 -0.32 8 -1 8 C-1.04241723 5.66705225 -1.04092937 3.33297433 -1 1 C-0.67 0.67 -0.34 0.34 0 0 Z " fill="#F8D5DD" transform="translate(638,1328)"/>
<path d="M0 0 C0.66 0 1.32 0 2 0 C2.33 1.98 2.66 3.96 3 6 C2.34 6 1.68 6 1 6 C0.67 6.66 0.34 7.32 0 8 C0 5.36 0 2.72 0 0 Z " fill="#FDD7E0" transform="translate(1655,1321)"/>
<path d="M0 0 C1.98 0 3.96 0 6 0 C6 0.66 6 1.32 6 2 C4.35 2.66 2.7 3.32 1 4 C0.67 2.68 0.34 1.36 0 0 Z " fill="#F9D0DA" transform="translate(1915,1148)"/>
<path d="M0 0 C1.98 0.99 1.98 0.99 4 2 C4 2.99 4 3.98 4 5 C4.66 5 5.32 5 6 5 C6 5.66 6 6.32 6 7 C3.5625 6.3125 3.5625 6.3125 1 5 C0.1875 2.375 0.1875 2.375 0 0 Z " fill="#F4D9DF" transform="translate(391,1110)"/>
<path d="M0 0 C1.65 0 3.3 0 5 0 C5 1.32 5 2.64 5 4 C4.01 4 3.02 4 2 4 C2 3.01 2 2.02 2 1 C1.34 0.67 0.68 0.34 0 0 Z " fill="#F7D1DA" transform="translate(1963,972)"/>
<path d="M0 0 C2.50298434 2.93828597 3.46930939 5.17902761 4 9 C0.06153846 5.67692308 0.06153846 5.67692308 -0.25 2.25 C-0.1675 1.5075 -0.085 0.765 0 0 Z " fill="#F7D3DB" transform="translate(1956,936)"/>
<path d="M0 0 C1 3 1 3 -0.3125 5.6875 C-0.869375 6.450625 -1.42625 7.21375 -2 8 C-2.66 8 -3.32 8 -4 8 C-2.25 2.25 -2.25 2.25 0 0 Z " fill="#F4D7DE" transform="translate(1863,912)"/>
<path d="M0 0 C0.99 0.33 1.98 0.66 3 1 C2.34 2.65 1.68 4.3 1 6 C0.34 6 -0.32 6 -1 6 C-0.67 4.02 -0.34 2.04 0 0 Z " fill="#F5CED8" transform="translate(64,815)"/>
<path d="M0 0 C0 1.98 0 3.96 0 6 C-0.99 6 -1.98 6 -3 6 C-3.33 4.35 -3.66 2.7 -4 1 C-2 0 -2 0 0 0 Z " fill="#FAD3DC" transform="translate(2000,507)"/>
<path d="M0 0 C2 3 2 3 2 5 C2.66 5 3.32 5 4 5 C4 5.66 4 6.32 4 7 C2.68 7.33 1.36 7.66 0 8 C0 5.36 0 2.72 0 0 Z " fill="#F7D7DF" transform="translate(1931,456)"/>
<path d="M0 0 C0.66 0.66 1.32 1.32 2 2 C2.99 2 3.98 2 5 2 C5 2.66 5 3.32 5 4 C3 5.625 3 5.625 1 7 C0 6 0 6 -0.0625 2.9375 C-0.041875 1.968125 -0.02125 0.99875 0 0 Z " fill="#FAD6DF" transform="translate(1939,198)"/>
<path d="M0 0 C1.04449911 3.13349732 0.93423645 3.98968256 0 7 C-0.99 7 -1.98 7 -3 7 C-2.25 2.25 -2.25 2.25 0 0 Z " fill="#F8D4DC" transform="translate(931,63)"/>
<path d="M0 0 C0.66 0 1.32 0 2 0 C2.66 2.31 3.32 4.62 4 7 C3.01 7.33 2.02 7.66 1 8 C0.67 5.36 0.34 2.72 0 0 Z " fill="#FCCFDC" transform="translate(1980,16)"/>
</svg>
